<?xml version="1.0" encoding="utf-8"?>
<!-- Generator: Adobe Illustrator 25.0.0, SVG Export Plug-In . SVG Version: 6.00 Build 0)  -->
<svg version="1.1" id="Layer_1" xmlns="http://www.w3.org/2000/svg" xmlns:xlink="http://www.w3.org/1999/xlink" x="0px" y="0px"
	 viewBox="0 0 595.2 841.4" style="enable-background:new 0 0 595.2 841.4;" xml:space="preserve">
<style type="text/css">
	.st0{fill:#020203;}
</style>
<g>
	<path class="st0" d="M390.5,175.1l-1.2,3.7l-7.4-2.5l-8.1,24.2l-4.6-1.5l8.1-24.2l-7.5-2.5l1.2-3.7L390.5,175.1z"/>
	<path class="st0" d="M408.5,204.3l-16.2-7.4c-0.6,1.8-0.6,3.4,0,4.9c0.7,1.5,1.8,2.7,3.5,3.4c2.4,1.1,4.5,0.8,6.4-0.7l4.7,2.2
		c-1.5,1.7-3.4,2.7-5.7,3.2c-2.3,0.5-4.6,0.2-7.1-1c-2-0.9-3.6-2.2-4.8-3.9c-1.2-1.6-1.9-3.5-2-5.6c-0.2-2.1,0.3-4.2,1.3-6.4
		c1-2.2,2.3-3.9,4-5.2c1.6-1.3,3.5-2,5.5-2.1c2-0.2,4.1,0.2,6.1,1.2c2,0.9,3.6,2.2,4.8,3.8c1.2,1.6,1.8,3.4,2,5.4
		c0.2,2-0.2,4-1.2,6.1C409.2,203,408.9,203.7,408.5,204.3z M405.6,198.8c0.7-1.6,0.7-3.2,0-4.7c-0.7-1.5-1.9-2.6-3.5-3.4
		c-1.5-0.7-3-0.8-4.6-0.3c-1.5,0.5-2.8,1.5-3.7,3L405.6,198.8z"/>
	<path class="st0" d="M427.5,190.5l-15.2,27.4l-4.2-2.3l15.2-27.4L427.5,190.5z"/>
	<path class="st0" d="M440.6,224.1l-14.9-9.8c-0.9,1.6-1.2,3.3-0.7,4.9c0.4,1.6,1.4,2.9,2.9,3.9c2.2,1.4,4.3,1.5,6.4,0.3l4.4,2.9
		c-1.8,1.4-3.8,2.2-6.1,2.3c-2.3,0.1-4.6-0.6-6.9-2.1c-1.9-1.2-3.3-2.7-4.2-4.6c-0.9-1.8-1.3-3.8-1.1-5.8c0.2-2.1,0.9-4.1,2.2-6.1
		c1.3-2,2.9-3.5,4.7-4.5c1.8-1,3.7-1.4,5.8-1.3c2,0.1,4,0.8,5.9,2.1c1.8,1.2,3.2,2.7,4.1,4.4s1.3,3.6,1.1,5.6
		c-0.2,2-0.9,3.9-2.1,5.8C441.6,222.9,441.1,223.6,440.6,224.1z M438.7,218.2c1-1.5,1.2-3,0.8-4.6c-0.4-1.6-1.4-2.9-3-3.9
		c-1.4-0.9-2.9-1.3-4.4-1c-1.6,0.2-3,1-4.1,2.4L438.7,218.2z"/>
	<path class="st0" d="M450.2,244.6l2.3-13.4l-2.8-2.4l-7.5,9.1l-3.7-3.1l18.8-22.7l7.8,6.5c1.7,1.4,3,3,3.7,4.6
		c0.7,1.6,0.9,3.2,0.7,4.7c-0.3,1.5-0.9,2.9-1.9,4.2c-1.2,1.5-2.8,2.5-4.6,3c-1.9,0.5-3.9,0.2-6-0.8l-2.2,14L450.2,244.6z
		 M452.2,225.9l4.1,3.4c1.4,1.2,2.7,1.7,4,1.6c1.3-0.1,2.4-0.8,3.4-1.9s1.4-2.4,1.2-3.6c-0.1-1.2-0.9-2.4-2.3-3.6l-4.1-3.4
		L452.2,225.9z"/>
	<path class="st0" d="M471.2,239.1c2-0.5,3.9-0.6,5.8,0c1.9,0.5,3.5,1.5,4.9,3c1.3,1.3,2.1,2.7,2.5,4.2c0.4,1.5,0.5,2.9,0.3,4.2
		l2.4-2.3l3.4,3.5l-16.9,16.1l-3.4-3.5l2.5-2.4c-1.4,0.2-2.8,0-4.3-0.5c-1.5-0.5-2.9-1.4-4.1-2.7c-1.4-1.4-2.3-3.1-2.7-5
		c-0.4-1.9-0.3-3.9,0.4-5.8c0.7-2,1.8-3.8,3.5-5.4C467.4,240.7,469.2,239.6,471.2,239.1z M481.2,252.6c0.4-1.3,0.5-2.6,0.2-3.8
		c-0.3-1.2-0.9-2.3-1.7-3.2c-0.9-0.9-1.9-1.5-3.1-1.9c-1.2-0.4-2.4-0.4-3.7,0c-1.3,0.3-2.5,1.1-3.7,2.2s-2,2.3-2.4,3.6
		c-0.4,1.3-0.5,2.6-0.2,3.8c0.3,1.2,0.9,2.3,1.7,3.2c0.9,0.9,1.9,1.5,3.1,1.9c1.2,0.3,2.4,0.3,3.8,0c1.3-0.4,2.6-1.1,3.7-2.2
		C480,255.1,480.8,253.9,481.2,252.6z"/>
	<path class="st0" d="M491.6,261.1c2-0.3,4-0.1,5.8,0.7c1.8,0.7,3.3,1.9,4.6,3.6c0.9,1.2,1.6,2.6,1.9,4.2c0.4,1.6,0.4,3.1,0,4.4
		l9-6.8l2.9,3.9l-25.1,18.8l-2.9-3.9l2.8-2.1c-1.4,0-2.8-0.3-4.2-0.9s-2.7-1.7-3.8-3.2c-1.2-1.6-1.9-3.4-2.1-5.4
		c-0.2-2,0.2-3.9,1.1-5.8c0.9-1.9,2.3-3.5,4.2-4.9C487.7,262.3,489.6,261.4,491.6,261.1z M500,275.7c0.5-1.2,0.8-2.5,0.6-3.7
		c-0.1-1.2-0.6-2.3-1.3-3.3c-0.7-1-1.7-1.7-2.8-2.2c-1.1-0.5-2.4-0.7-3.7-0.5c-1.3,0.2-2.6,0.7-3.9,1.7c-1.3,1-2.2,2.1-2.8,3.3
		c-0.6,1.3-0.8,2.5-0.6,3.8c0.1,1.2,0.6,2.4,1.3,3.3c0.7,1,1.7,1.7,2.8,2.2c1.1,0.5,2.4,0.6,3.8,0.4c1.4-0.2,2.7-0.8,4-1.7
		C498.5,278,499.4,276.9,500,275.7z"/>
	<path class="st0" d="M509.4,302.7c0-1,0.3-1.9,0.8-2.7c0.5-0.8,1.2-1.5,2.1-2c1.4-0.7,2.8-0.9,4.2-0.5c1.5,0.4,2.5,1.3,3.3,2.7
		c0.8,1.4,0.9,2.8,0.5,4.3c-0.4,1.5-1.3,2.6-2.7,3.3s-2.8,0.9-4.2,0.5c-1.4-0.4-2.5-1.4-3.3-2.7
		C509.5,304.6,509.3,303.7,509.4,302.7z"/>
	<path class="st0" d="M546.9,337.7l-3.7,1.4l-2.8-7.3l-23.9,9l-1.7-4.5l23.9-9l-2.8-7.4l3.7-1.4L546.9,337.7z"/>
	<path class="st0" d="M535.5,370.1l-4.5-17.3c-1.8,0.6-3,1.7-3.8,3.1c-0.8,1.5-0.9,3.1-0.5,4.9c0.7,2.5,2.2,4,4.6,4.5l1.3,5
		c-2.3-0.1-4.3-0.9-6.1-2.4c-1.8-1.4-3-3.5-3.7-6.1c-0.6-2.2-0.6-4.2-0.1-6.2c0.5-2,1.5-3.7,3-5.1c1.5-1.4,3.4-2.5,5.7-3.1
		c2.3-0.6,4.5-0.7,6.5-0.2c2,0.5,3.7,1.4,5.1,2.9c1.4,1.5,2.4,3.3,3,5.5c0.6,2.1,0.6,4.2,0.1,6.1c-0.5,1.9-1.5,3.6-2.9,4.9
		c-1.4,1.4-3.2,2.3-5.4,2.9C537,369.9,536.2,370,535.5,370.1z M538,364.4c1.7-0.5,2.9-1.5,3.7-2.9c0.7-1.5,0.9-3.1,0.4-4.9
		c-0.4-1.6-1.3-2.9-2.6-3.7c-1.3-0.9-2.9-1.2-4.7-1L538,364.4z"/>
	<path class="st0" d="M558.3,376.1l-30.9,5.6l-0.9-4.8l30.9-5.6L558.3,376.1z"/>
	<path class="st0" d="M540.4,407.5l-1.8-17.7c-1.8,0.3-3.3,1.2-4.3,2.5c-1,1.3-1.4,2.9-1.2,4.7c0.3,2.6,1.5,4.3,3.8,5.2l0.5,5.2
		c-2.2-0.5-4.1-1.6-5.6-3.3c-1.5-1.7-2.5-3.9-2.7-6.6c-0.2-2.2,0.1-4.3,0.9-6.1c0.8-1.9,2.1-3.4,3.8-4.6c1.7-1.2,3.8-1.9,6.2-2.1
		c2.4-0.2,4.5,0,6.4,0.8c1.9,0.8,3.4,2,4.6,3.7c1.2,1.7,1.9,3.6,2.1,5.9c0.2,2.2-0.1,4.2-0.8,6c-0.8,1.8-2,3.3-3.6,4.4
		c-1.6,1.1-3.6,1.8-5.8,2C541.9,407.5,541.2,407.6,540.4,407.5z M543.8,402.3c1.8-0.2,3.1-1,4.1-2.3c0.9-1.3,1.3-2.9,1.1-4.8
		c-0.2-1.7-0.8-3-2-4.1c-1.2-1.1-2.7-1.6-4.5-1.7L543.8,402.3z"/>
	<path class="st0" d="M530.6,427.9l11.9-6.6l0.1-3.7l-11.8-0.2l0.1-4.8l29.4,0.5l-0.2,10.2c0,2.3-0.5,4.2-1.3,5.7
		c-0.8,1.6-1.9,2.7-3.2,3.5c-1.3,0.8-2.8,1.1-4.5,1.1c-1.9,0-3.7-0.6-5.2-1.8c-1.5-1.1-2.6-2.9-3.1-5.2l-12.3,7.1L530.6,427.9z
		 M546.4,417.7l-0.1,5.3c0,1.8,0.4,3.2,1.3,4.1c0.9,0.9,2.1,1.4,3.6,1.4c1.5,0,2.7-0.4,3.6-1.3c0.9-0.9,1.3-2.3,1.4-4.1l0.1-5.3
		L546.4,417.7z"/>
	<path class="st0" d="M548.2,440.7c1.7,1.2,2.9,2.7,3.7,4.5c0.8,1.8,1.1,3.7,0.8,5.7c-0.2,1.8-0.8,3.4-1.7,4.6s-1.9,2.2-3.1,2.9
		l3.4,0.4l-0.6,4.8l-23.2-2.9l0.6-4.8l3.4,0.4c-1-0.9-1.8-2.2-2.3-3.7c-0.6-1.5-0.7-3.1-0.5-4.9c0.2-2,1-3.7,2.2-5.3
		c1.2-1.5,2.8-2.7,4.8-3.4s4.1-1,6.4-0.7C544.5,438.8,546.5,439.5,548.2,440.7z M544,457c1.3-0.5,2.3-1.3,3-2.3
		c0.7-1,1.2-2.1,1.4-3.3c0.2-1.2,0-2.4-0.5-3.6c-0.5-1.1-1.2-2.1-2.3-2.9s-2.4-1.3-4-1.5c-1.6-0.2-3,0-4.3,0.5
		c-1.3,0.5-2.3,1.3-3.1,2.3c-0.8,1-1.2,2.1-1.4,3.3c-0.2,1.2,0,2.4,0.5,3.6c0.5,1.1,1.3,2.1,2.4,2.9c1.1,0.8,2.5,1.3,4.1,1.5
		C541.3,457.6,542.7,457.5,544,457z"/>
	<path class="st0" d="M544,470.4c1.5,1.4,2.6,3,3.1,4.9c0.6,1.9,0.6,3.8,0.1,5.8c-0.4,1.5-1.1,2.9-2.1,4.1c-1,1.3-2.1,2.2-3.4,2.8
		l10.9,2.7l-1.2,4.7l-30.4-7.5l1.2-4.7l3.4,0.8c-0.9-1-1.5-2.3-1.9-3.9c-0.4-1.5-0.3-3.2,0.1-4.9c0.5-2,1.4-3.7,2.8-5
		c1.4-1.4,3.1-2.3,5.2-2.8c2-0.5,4.2-0.5,6.5,0.1C540.6,468.1,542.5,469.1,544,470.4z M538,486.1c1.3-0.4,2.4-1,3.3-1.9
		c0.9-0.9,1.4-1.9,1.7-3.1c0.3-1.2,0.3-2.4,0-3.6c-0.3-1.2-1-2.2-2-3.2c-1-0.9-2.2-1.6-3.8-2c-1.6-0.4-3-0.4-4.4-0.1
		c-1.3,0.4-2.4,1-3.3,1.9c-0.9,0.9-1.5,1.9-1.8,3.1c-0.3,1.2-0.3,2.4,0.1,3.6c0.3,1.2,1,2.3,2,3.2c1,0.9,2.3,1.6,3.9,2
		C535.2,486.4,536.7,486.5,538,486.1z"/>
	<path class="st0" d="M522.9,510.5c0.8-0.6,1.6-0.9,2.6-1.1c1-0.1,1.9,0,2.8,0.4c1.4,0.6,2.4,1.6,3,3c0.6,1.4,0.6,2.8,0,4.2
		c-0.6,1.5-1.6,2.5-3,3.1c-1.4,0.6-2.8,0.6-4.3,0c-1.4-0.6-2.4-1.6-3-3c-0.6-1.4-0.6-2.8,0-4.3C521.6,511.8,522.1,511,522.9,510.5z"
		/>
	<path class="st0" d="M519.4,561.7l-3.4-2l3.9-6.8l-22-12.8l2.4-4.2l22,12.8l4-6.8l3.4,2L519.4,561.7z"/>
	<path class="st0" d="M487.1,573.2l10.5-14.4c-1.6-1-3.2-1.3-4.9-1c-1.6,0.3-3,1.2-4.1,2.7c-1.5,2.1-1.7,4.2-0.6,6.4l-3.1,4.2
		c-1.3-1.8-2-3.9-2-6.2c0-2.3,0.8-4.6,2.4-6.8c1.3-1.8,2.9-3.1,4.8-4c1.9-0.8,3.8-1.1,5.9-0.8c2.1,0.3,4.1,1.1,6,2.5
		c1.9,1.4,3.4,3.1,4.2,4.9s1.2,3.8,1,5.8c-0.2,2-1,3.9-2.4,5.8c-1.3,1.8-2.8,3.1-4.6,3.9c-1.8,0.8-3.7,1.1-5.6,0.9
		c-2-0.3-3.9-1-5.7-2.4C488.2,574.3,487.6,573.8,487.1,573.2z M493.2,571.6c1.5,1,3,1.4,4.6,1c1.6-0.4,2.9-1.3,4-2.8
		c1-1.3,1.4-2.8,1.2-4.4c-0.2-1.6-0.9-3-2.2-4.2L493.2,571.6z"/>
	<path class="st0" d="M496.8,594.7L473,574.3l3.1-3.7l23.8,20.4L496.8,594.7z"/>
	<path class="st0" d="M461.2,600.7l12.6-12.6c-1.4-1.2-3-1.8-4.6-1.7c-1.7,0.1-3.2,0.8-4.4,2c-1.8,1.8-2.4,3.9-1.6,6.2l-3.7,3.7
		c-1-2-1.4-4.2-1-6.4c0.3-2.3,1.5-4.4,3.4-6.3c1.6-1.6,3.3-2.6,5.3-3.2c2-0.5,3.9-0.5,5.9,0.1c2,0.6,3.8,1.7,5.5,3.4
		c1.7,1.7,2.8,3.5,3.4,5.5c0.6,2,0.6,3.9,0.1,5.9c-0.6,1.9-1.6,3.7-3.3,5.3c-1.6,1.6-3.3,2.6-5.2,3.1c-1.9,0.5-3.8,0.5-5.7,0
		c-1.9-0.6-3.7-1.6-5.3-3.2C462.2,601.9,461.7,601.3,461.2,600.7z M467.4,600.1c1.3,1.2,2.7,1.8,4.4,1.7c1.6-0.1,3.1-0.8,4.4-2.1
		c1.2-1.2,1.8-2.6,1.9-4.1c0.1-1.6-0.4-3.1-1.5-4.5L467.4,600.1z"/>
	<path class="st0" d="M439.2,606.1l12.7,5l2.9-2.3l-7.4-9.2l3.8-3l18.4,23l-7.9,6.4c-1.8,1.4-3.5,2.3-5.2,2.7
		c-1.7,0.4-3.3,0.3-4.7-0.3c-1.4-0.6-2.7-1.5-3.7-2.7c-1.2-1.5-1.9-3.2-2-5.1c-0.1-1.9,0.6-3.8,2-5.7l-13.3-5L439.2,606.1z
		 M457.1,611.7l-4.2,3.3c-1.4,1.1-2.2,2.3-2.3,3.6c-0.2,1.3,0.2,2.5,1.2,3.7c1,1.2,2.1,1.8,3.3,1.9c1.2,0.1,2.6-0.4,4-1.6l4.2-3.3
		L457.1,611.7z"/>
	<path class="st0" d="M440.4,627.7c0.1,2-0.2,3.9-1.1,5.7c-0.9,1.7-2.2,3.2-3.9,4.2c-1.6,1-3.1,1.5-4.6,1.6
		c-1.5,0.1-2.9-0.1-4.2-0.5l1.8,2.9l-4.1,2.6l-12.4-19.8l4.1-2.6l1.8,2.9c0.1-1.4,0.6-2.7,1.4-4.1c0.8-1.4,2-2.5,3.5-3.5
		c1.7-1.1,3.5-1.6,5.5-1.6c2,0,3.8,0.5,5.7,1.6c1.8,1,3.3,2.6,4.6,4.6C439.6,623.6,440.3,625.6,440.4,627.7z M425.2,634.7
		c1.2,0.7,2.4,1,3.6,0.9c1.2,0,2.4-0.4,3.4-1.1c1.1-0.7,1.9-1.5,2.5-2.6c0.6-1.1,0.9-2.3,0.8-3.6c-0.1-1.3-0.5-2.7-1.4-4.1
		c-0.9-1.4-1.9-2.4-3.1-3.1c-1.2-0.7-2.4-1-3.7-1c-1.3,0-2.4,0.4-3.4,1c-1.1,0.7-1.9,1.5-2.4,2.6s-0.8,2.3-0.8,3.7
		c0.1,1.4,0.5,2.7,1.4,4.1C422.9,633.1,424,634.1,425.2,634.7z"/>
	<path class="st0" d="M414.7,643.3c-0.1,2-0.7,3.9-1.8,5.5c-1.1,1.6-2.6,2.9-4.4,3.8c-1.4,0.6-2.9,1-4.5,1c-1.6,0-3.1-0.3-4.3-0.9
		l4.8,10.2l-4.4,2.1l-13.4-28.4l4.4-2.1l1.5,3.2c0.2-1.4,0.8-2.7,1.8-3.9c1-1.3,2.2-2.3,3.9-3c1.8-0.9,3.7-1.2,5.7-1
		c2,0.2,3.8,1,5.4,2.2s3,2.9,4,5.1C414.4,639.1,414.8,641.2,414.7,643.3z M398.7,648.4c1.1,0.8,2.3,1.2,3.5,1.3
		c1.2,0.1,2.4-0.1,3.5-0.6c1.1-0.5,2-1.3,2.8-2.3c0.7-1,1.1-2.2,1.2-3.5c0.1-1.3-0.2-2.7-0.9-4.2c-0.7-1.5-1.6-2.6-2.7-3.4
		c-1.1-0.8-2.3-1.3-3.6-1.4c-1.3-0.1-2.4,0.1-3.5,0.6c-1.1,0.5-2,1.3-2.7,2.3c-0.7,1-1.1,2.2-1.2,3.6c-0.1,1.4,0.2,2.8,0.9,4.2
		C396.7,646.5,397.6,647.6,398.7,648.4z"/>
	<path class="st0" d="M370.3,652.1c0.9,0.2,1.8,0.7,2.5,1.3c0.7,0.7,1.2,1.5,1.5,2.4c0.4,1.5,0.3,2.9-0.4,4.2
		c-0.7,1.3-1.8,2.2-3.3,2.7c-1.5,0.5-2.9,0.3-4.3-0.4c-1.3-0.7-2.2-1.8-2.7-3.3c-0.4-1.5-0.3-2.9,0.4-4.2c0.7-1.3,1.8-2.2,3.4-2.7
		C368.4,651.9,369.4,651.9,370.3,652.1z"/>
	<path class="st0" d="M328.4,681.7l-0.6-3.9l7.7-1.2l-3.9-25.2l4.8-0.7l3.9,25.2l7.8-1.2l0.6,3.9L328.4,681.7z"/>
	<path class="st0" d="M299,664l17.8-0.9c-0.2-1.9-1-3.3-2.3-4.4c-1.3-1.1-2.9-1.5-4.7-1.5c-2.6,0.1-4.4,1.3-5.3,3.5l-5.2,0.3
		c0.6-2.2,1.8-4,3.6-5.5c1.8-1.5,4-2.3,6.8-2.4c2.2-0.1,4.3,0.3,6.1,1.2c1.8,0.9,3.3,2.2,4.4,4c1.1,1.8,1.7,3.9,1.8,6.2
		c0.1,2.4-0.3,4.5-1.1,6.4c-0.9,1.9-2.2,3.3-3.9,4.4s-3.7,1.7-6,1.8c-2.2,0.1-4.2-0.3-6-1.1c-1.8-0.9-3.2-2.1-4.2-3.8
		c-1-1.7-1.6-3.7-1.7-5.9C298.9,665.5,299,664.7,299,664z M304.1,667.7c0.1,1.8,0.8,3.2,2.1,4.2c1.3,1,2.9,1.5,4.7,1.4
		c1.7-0.1,3.1-0.7,4.2-1.8c1.1-1.1,1.8-2.6,1.9-4.4L304.1,667.7z"/>
	<path class="st0" d="M288.6,685.1l0.8-31.3l4.8,0.1l-0.8,31.3L288.6,685.1z"/>
	<path class="st0" d="M261.4,661.3l17.7,1.8c0-1.9-0.5-3.4-1.6-4.7c-1.1-1.3-2.6-2-4.4-2.2c-2.6-0.3-4.5,0.6-5.8,2.7l-5.2-0.5
		c0.9-2.1,2.4-3.7,4.4-4.9c2-1.2,4.3-1.6,7.1-1.3c2.2,0.2,4.2,0.9,5.8,2.1c1.7,1.2,2.9,2.7,3.7,4.6c0.8,1.9,1.1,4.1,0.9,6.5
		c-0.2,2.4-0.9,4.4-2.1,6.2c-1.2,1.7-2.7,3-4.5,3.8c-1.9,0.8-3.9,1.1-6.2,0.9c-2.2-0.2-4.1-0.9-5.7-2c-1.6-1.1-2.8-2.6-3.6-4.4
		c-0.8-1.8-1.1-3.9-0.8-6.1C261.1,662.8,261.2,662,261.4,661.3z M265.8,665.7c-0.2,1.8,0.3,3.3,1.5,4.5c1.1,1.2,2.6,1.9,4.4,2.1
		c1.7,0.2,3.1-0.2,4.4-1.1c1.3-0.9,2.1-2.3,2.5-4.1L265.8,665.7z"/>
	<path class="st0" d="M243.4,647.6l4.1,12.9l3.6,0.8l2.5-11.5l4.7,1l-6.2,28.8l-9.9-2.1c-2.2-0.5-4-1.3-5.4-2.4
		c-1.4-1.1-2.3-2.4-2.8-3.8c-0.5-1.5-0.5-3-0.2-4.6c0.4-1.9,1.3-3.5,2.7-4.8c1.4-1.3,3.3-2,5.7-2l-4.6-13.5L243.4,647.6z
		 M250.3,665.1l-5.2-1.1c-1.8-0.4-3.2-0.2-4.3,0.5c-1.1,0.7-1.8,1.8-2.1,3.3c-0.3,1.5-0.1,2.8,0.6,3.8c0.7,1,2,1.7,3.7,2.1l5.2,1.1
		L250.3,665.1z"/>
	<path class="st0" d="M227.3,662.2c-1.5,1.4-3.2,2.3-5.1,2.7c-1.9,0.4-3.8,0.3-5.8-0.4c-1.7-0.6-3.1-1.4-4.2-2.6
		c-1.1-1.1-1.8-2.3-2.2-3.6l-1.1,3.2l-4.6-1.6l7.5-22.1l4.6,1.6l-1.1,3.3c1.1-0.8,2.5-1.3,4.1-1.5c1.6-0.2,3.2-0.1,4.9,0.5
		c1.9,0.6,3.5,1.7,4.7,3.2c1.2,1.5,2,3.3,2.4,5.4c0.3,2.1,0.1,4.2-0.6,6.4C230,659,228.8,660.8,227.3,662.2z M212.2,654.8
		c0.2,1.3,0.8,2.5,1.6,3.4c0.8,0.9,1.8,1.6,3,2c1.2,0.4,2.4,0.5,3.6,0.3c1.2-0.2,2.3-0.8,3.3-1.7c1-0.9,1.8-2.1,2.3-3.6
		c0.5-1.5,0.7-3,0.4-4.3c-0.2-1.4-0.8-2.5-1.6-3.5c-0.8-1-1.8-1.6-3-2c-1.2-0.4-2.4-0.5-3.6-0.2c-1.2,0.2-2.3,0.8-3.3,1.7
		c-1,0.9-1.8,2.1-2.3,3.7C212.1,652,212,653.5,212.2,654.8z"/>
	<path class="st0" d="M199,652.1c-1.7,1.2-3.5,1.9-5.4,2.1c-1.9,0.2-3.9-0.2-5.7-1.1c-1.4-0.7-2.6-1.6-3.6-2.9c-1-1.2-1.7-2.5-2-3.9
		l-4.9,10.2l-4.4-2.1l13.6-28.3l4.4,2.1l-1.5,3.2c1.2-0.7,2.6-1,4.2-1.1c1.6-0.1,3.2,0.3,4.8,1.1c1.8,0.9,3.3,2.2,4.3,3.8
		c1.1,1.7,1.6,3.5,1.7,5.6c0.1,2.1-0.4,4.2-1.4,6.3S200.7,650.9,199,652.1z M184.9,642.9c0.1,1.4,0.5,2.5,1.2,3.6
		c0.7,1,1.6,1.8,2.7,2.3c1.1,0.5,2.3,0.8,3.5,0.7c1.2-0.1,2.4-0.5,3.5-1.3c1.1-0.8,2-1.9,2.7-3.3c0.7-1.5,1-2.9,0.9-4.3
		c-0.1-1.4-0.5-2.6-1.2-3.6c-0.7-1-1.6-1.8-2.7-2.4c-1.1-0.5-2.3-0.8-3.5-0.7c-1.2,0.1-2.4,0.5-3.5,1.3c-1.1,0.8-2,1.9-2.7,3.4
		C185.2,640.2,184.9,641.6,184.9,642.9z"/>
	<path class="st0" d="M164.2,623.2c0.4,0.9,0.6,1.8,0.5,2.8c-0.1,1-0.4,1.9-0.9,2.7c-0.9,1.3-2.1,2.1-3.5,2.4
		c-1.5,0.3-2.9,0-4.1-0.9c-1.3-0.9-2.1-2.1-2.4-3.6c-0.3-1.5,0-2.9,0.9-4.2c0.9-1.3,2-2.1,3.5-2.3c1.5-0.3,2.9,0,4.2,0.9
		C163.1,621.6,163.7,622.4,164.2,623.2z"/>
	<path class="st0" d="M114.8,609.4l2.6-2.9l5.8,5.2l17-19l3.6,3.2l-17,19l5.9,5.3l-2.6,2.9L114.8,609.4z"/>
	<path class="st0" d="M109.9,575.5l12,13.2c1.3-1.4,1.9-2.9,1.9-4.6c0-1.7-0.6-3.2-1.8-4.5c-1.7-1.9-3.8-2.6-6.1-1.9l-3.5-3.9
		c2.1-0.9,4.2-1.2,6.5-0.7c2.3,0.5,4.3,1.7,6.1,3.7c1.5,1.7,2.5,3.5,2.9,5.5c0.4,2,0.3,4-0.4,5.9c-0.7,2-1.9,3.8-3.7,5.4
		c-1.8,1.6-3.7,2.7-5.7,3.2c-2,0.5-4,0.4-5.9-0.2c-1.9-0.6-3.6-1.8-5.2-3.5c-1.5-1.6-2.4-3.4-2.9-5.3c-0.4-1.9-0.3-3.8,0.3-5.7
		c0.6-1.9,1.8-3.6,3.5-5.1C108.7,576.4,109.3,575.9,109.9,575.5z M110.3,581.7c-1.3,1.2-1.9,2.6-1.9,4.3c0,1.6,0.7,3.1,1.9,4.5
		c1.1,1.2,2.5,1.9,4.1,2.1c1.6,0.2,3.1-0.3,4.6-1.3L110.3,581.7z"/>
	<path class="st0" d="M87,580.7l24.8-19.2l3,3.8l-24.8,19.2L87,580.7z"/>
	<path class="st0" d="M88.2,544.6l9.8,14.9c1.5-1.1,2.4-2.5,2.6-4.2c0.3-1.7-0.1-3.2-1.1-4.8c-1.4-2.2-3.3-3.1-5.8-2.8l-2.9-4.4
		c2.2-0.6,4.4-0.5,6.5,0.3c2.2,0.8,4,2.3,5.5,4.6c1.2,1.9,1.9,3.8,2,5.8c0.1,2-0.3,4-1.3,5.8c-1,1.8-2.5,3.4-4.5,4.7
		c-2,1.3-4,2.1-6.1,2.3c-2.1,0.2-4-0.2-5.8-1.1c-1.8-0.9-3.3-2.4-4.6-4.3c-1.2-1.8-1.9-3.7-2-5.7c-0.1-2,0.2-3.8,1.2-5.6
		c0.9-1.8,2.3-3.3,4.2-4.5C86.9,545.2,87.6,544.9,88.2,544.6z M87.6,550.8c-1.5,1-2.3,2.3-2.5,3.9c-0.2,1.6,0.2,3.2,1.2,4.7
		c0.9,1.4,2.1,2.3,3.7,2.7s3.1,0.2,4.8-0.6L87.6,550.8z"/>
	<path class="st0" d="M87.5,521.9l-7.4,11.4l1.7,3.3l10.5-5.3l2.2,4.3l-26.2,13.4l-4.6-9.1c-1-2-1.5-3.9-1.5-5.7
		c0-1.8,0.4-3.3,1.2-4.6c0.8-1.3,2-2.3,3.4-3.1c1.7-0.9,3.5-1.2,5.4-0.9c1.9,0.3,3.6,1.3,5.2,3.1l7.6-12L87.5,521.9z M78.3,538.3
		l-2.4-4.8c-0.8-1.6-1.8-2.6-3.1-3c-1.2-0.4-2.5-0.3-3.9,0.4c-1.4,0.7-2.2,1.6-2.6,2.8c-0.4,1.2-0.1,2.6,0.7,4.2l2.4,4.8L78.3,538.3
		z"/>
	<path class="st0" d="M66.1,518.7c-2-0.3-3.8-1-5.3-2.3c-1.5-1.2-2.6-2.8-3.3-4.7c-0.6-1.7-0.9-3.4-0.7-4.9c0.2-1.5,0.7-2.9,1.4-4
		l-3.2,1.2l-1.7-4.6l21.9-8.1l1.7,4.6l-3.3,1.2c1.3,0.4,2.6,1.1,3.7,2.2c1.2,1.1,2.1,2.5,2.7,4.1c0.7,1.9,0.9,3.8,0.5,5.7
		c-0.4,1.9-1.3,3.7-2.7,5.2c-1.4,1.6-3.2,2.7-5.4,3.6C70.2,518.7,68.1,519,66.1,518.7z M62.3,502.3c-0.9,1-1.4,2.2-1.6,3.4
		c-0.2,1.2-0.1,2.4,0.3,3.6c0.4,1.2,1.1,2.1,2.1,2.9c0.9,0.8,2.1,1.3,3.4,1.5c1.3,0.2,2.7,0,4.3-0.5c1.5-0.6,2.7-1.4,3.6-2.4
		c0.9-1,1.5-2.2,1.7-3.4c0.2-1.2,0.1-2.4-0.3-3.6c-0.4-1.2-1.1-2.1-2.1-2.9c-1-0.8-2.1-1.3-3.5-1.5c-1.4-0.2-2.8,0-4.3,0.5
		C64.3,500.5,63.2,501.3,62.3,502.3z"/>
	<path class="st0" d="M56,490.3c-2-0.5-3.7-1.5-5-2.9c-1.4-1.4-2.3-3.1-2.8-5.1c-0.4-1.5-0.4-3-0.1-4.6c0.3-1.6,0.9-2.9,1.8-4.1
		l-11,2.6l-1.1-4.7l30.5-7.3l1.1,4.7l-3.4,0.8c1.3,0.5,2.4,1.4,3.5,2.5c1,1.2,1.8,2.7,2.2,4.4c0.5,2,0.4,3.9-0.2,5.8
		c-0.6,1.9-1.7,3.5-3.3,4.9c-1.6,1.4-3.5,2.3-5.8,2.9C60.2,490.9,58,490.9,56,490.3z M54.2,473.7c-1,0.9-1.7,2-2,3.2
		c-0.4,1.2-0.4,2.4-0.1,3.6c0.3,1.2,0.9,2.3,1.7,3.2c0.8,0.9,1.9,1.5,3.2,1.9c1.3,0.4,2.7,0.4,4.3,0c1.6-0.4,2.9-1,3.9-2
		c1-0.9,1.7-2,2.1-3.2c0.4-1.2,0.4-2.4,0.1-3.6c-0.3-1.2-0.9-2.3-1.7-3.2c-0.9-0.9-1.9-1.5-3.3-1.9c-1.3-0.4-2.8-0.4-4.3,0
		C56.5,472.1,55.2,472.7,54.2,473.7z"/>
	<path class="st0" d="M56.4,445.1c-0.4,0.9-1,1.6-1.8,2.2c-0.8,0.6-1.7,0.9-2.7,1c-1.5,0.1-2.9-0.3-4.1-1.3c-1.2-1-1.8-2.2-1.9-3.7
		c-0.1-1.6,0.3-2.9,1.3-4.1c1-1.2,2.2-1.8,3.8-1.9c1.5-0.1,2.9,0.3,4,1.3c1.1,1,1.8,2.3,1.9,3.8C57,443.3,56.8,444.2,56.4,445.1z"/>
	<path class="st0" d="M35.9,398.1l3.9,0.2l-0.4,7.8l25.5,1.2l-0.2,4.8l-25.5-1.2l-0.4,7.9l-3.9-0.2L35.9,398.1z"/>
	<path class="st0" d="M59.2,372.9l-2.7,17.6c1.9,0.1,3.4-0.3,4.8-1.4c1.3-1.1,2.1-2.5,2.4-4.3c0.4-2.6-0.4-4.5-2.4-5.9l0.8-5.2
		c2,1,3.6,2.5,4.6,4.6c1.1,2,1.4,4.4,1,7.1c-0.3,2.2-1.1,4.1-2.4,5.7c-1.3,1.6-2.9,2.8-4.8,3.5c-2,0.7-4.1,0.9-6.5,0.5
		c-2.4-0.4-4.4-1.2-6-2.4c-1.7-1.2-2.8-2.8-3.6-4.7c-0.7-1.9-0.9-4-0.6-6.2c0.3-2.2,1.1-4,2.3-5.6c1.2-1.6,2.7-2.7,4.6-3.4
		c1.9-0.7,3.9-0.9,6.1-0.5C57.7,372.5,58.5,372.7,59.2,372.9z M54.6,377.1c-1.8-0.2-3.3,0.2-4.5,1.2c-1.2,1.1-2,2.5-2.3,4.3
		c-0.3,1.6,0.1,3.1,0.9,4.5c0.9,1.3,2.2,2.2,3.9,2.7L54.6,377.1z"/>
	<path class="st0" d="M40.6,358.4l30.5,7.1l-1.1,4.7l-30.5-7.1L40.6,358.4z"/>
	<path class="st0" d="M69.4,336.6l-5.4,17c1.8,0.4,3.5,0.2,4.9-0.6c1.5-0.8,2.5-2.1,3-3.8c0.8-2.5,0.3-4.6-1.4-6.2l1.6-5
		c1.8,1.3,3.1,3.1,3.9,5.2c0.7,2.2,0.7,4.6-0.1,7.2c-0.7,2.1-1.8,3.9-3.2,5.3c-1.5,1.4-3.3,2.3-5.3,2.7c-2,0.4-4.2,0.2-6.5-0.5
		c-2.3-0.7-4.2-1.8-5.6-3.3c-1.4-1.5-2.4-3.2-2.8-5.2c-0.4-2-0.3-4.1,0.4-6.2c0.7-2.1,1.7-3.8,3.2-5.2c1.4-1.4,3.1-2.2,5.1-2.6
		c1.9-0.4,4-0.2,6.2,0.4C68.1,335.9,68.8,336.2,69.4,336.6z M64.2,340c-1.7-0.5-3.3-0.3-4.7,0.5c-1.4,0.9-2.4,2.2-2.9,3.9
		c-0.5,1.6-0.4,3.1,0.2,4.6c0.7,1.5,1.8,2.6,3.5,3.3L64.2,340z"/>
	<path class="st0" d="M86.6,321.7l-13.5,1.4l-1.5,3.4l10.8,4.8l-2,4.4l-26.9-12l4.1-9.3c0.9-2.1,2.1-3.7,3.4-4.8s2.8-1.8,4.3-1.9
		c1.5-0.2,3,0.1,4.5,0.7c1.8,0.8,3.1,2,4.1,3.7c1,1.7,1.3,3.7,0.8,6l14.1-1.7L86.6,321.7z M68,324.9l2.2-4.9
		c0.7-1.7,0.9-3.1,0.4-4.3c-0.5-1.2-1.4-2.1-2.8-2.7c-1.4-0.6-2.7-0.7-3.8-0.2c-1.2,0.5-2.1,1.6-2.8,3.2l-2.2,4.9L68,324.9z"/>
	<path class="st0" d="M75.6,303c-1.1-1.8-1.6-3.6-1.6-5.6c0-2,0.5-3.8,1.5-5.6c0.9-1.6,2.1-2.8,3.4-3.6c1.3-0.8,2.6-1.3,4-1.5
		l-2.9-1.7l2.5-4.2l20.1,11.9l-2.5,4.2l-3-1.8c0.5,1.3,0.8,2.7,0.7,4.3c-0.1,1.6-0.6,3.2-1.5,4.7c-1,1.7-2.4,3-4.1,4
		c-1.7,0.9-3.6,1.3-5.7,1.2c-2.1-0.1-4.1-0.8-6.2-1.9C78.2,306.3,76.6,304.8,75.6,303z M85.9,289.8c-1.4,0-2.6,0.3-3.7,0.9
		c-1.1,0.6-1.9,1.4-2.6,2.5c-0.6,1.1-1,2.2-1,3.5c0,1.2,0.3,2.4,1,3.6c0.7,1.2,1.7,2.2,3.1,3c1.4,0.8,2.8,1.3,4.2,1.3
		c1.4,0,2.6-0.2,3.7-0.8c1.1-0.6,2-1.4,2.6-2.5c0.6-1.1,1-2.2,1-3.5c0-1.2-0.3-2.5-1-3.6c-0.7-1.2-1.7-2.2-3.1-3
		C88.6,290.2,87.2,289.8,85.9,289.8z"/>
	<path class="st0" d="M91.2,277.4c-0.8-1.9-1.2-3.8-0.9-5.7c0.2-1.9,1-3.7,2.2-5.4c0.9-1.2,2.1-2.2,3.5-3c1.4-0.8,2.8-1.2,4.3-1.2
		l-9-6.8l3-3.9l24.9,19.1l-3,3.9l-2.8-2.1c0.4,1.3,0.5,2.8,0.2,4.3c-0.3,1.6-0.9,3.1-2,4.5c-1.2,1.6-2.8,2.8-4.6,3.5
		c-1.8,0.7-3.8,0.9-5.9,0.5c-2.1-0.4-4-1.2-5.9-2.7C93.4,280.9,92.1,279.3,91.2,277.4z M103,265.5c-1.3-0.2-2.6-0.1-3.7,0.4
		c-1.1,0.5-2.1,1.2-2.9,2.2c-0.8,1-1.2,2.1-1.4,3.3c-0.2,1.2,0,2.5,0.5,3.7c0.5,1.2,1.4,2.3,2.7,3.3c1.3,1,2.6,1.6,4,1.8
		s2.6,0.1,3.8-0.4c1.2-0.5,2.1-1.2,2.9-2.2c0.8-1,1.2-2.1,1.4-3.3c0.2-1.2,0-2.5-0.6-3.7c-0.6-1.3-1.5-2.4-2.7-3.4
		C105.7,266.2,104.4,265.7,103,265.5z"/>
	<path class="st0" d="M126.5,249.1c-0.9,0.2-1.9,0.2-2.8,0c-0.9-0.3-1.8-0.7-2.5-1.5c-1.1-1.1-1.6-2.4-1.6-3.9
		c0-1.5,0.6-2.8,1.7-3.9c1.1-1.1,2.5-1.6,4-1.6c1.5,0,2.8,0.6,3.9,1.7c1.1,1.1,1.6,2.4,1.6,3.9c0,1.5-0.6,2.8-1.7,3.9
		C128.3,248.4,127.5,248.9,126.5,249.1z"/>
	<path class="st0" d="M150,203.5l2.3,3.2l-6.3,4.7l15.2,20.5l-3.9,2.9l-15.2-20.5l-6.3,4.7l-2.3-3.2L150,203.5z"/>
	<path class="st0" d="M184.2,205.6l-15.4,9.1c1.1,1.5,2.4,2.5,4.1,2.8c1.6,0.3,3.2,0.1,4.8-0.9c2.2-1.3,3.3-3.2,3.1-5.6l4.5-2.6
		c0.5,2.2,0.3,4.4-0.6,6.5c-0.9,2.1-2.5,3.9-4.9,5.3c-1.9,1.1-3.9,1.7-5.9,1.7c-2,0-3.9-0.5-5.7-1.5c-1.8-1.1-3.3-2.6-4.5-4.7
		c-1.2-2.1-1.9-4.1-2-6.2s0.4-4,1.4-5.7c1-1.7,2.5-3.2,4.5-4.4c1.9-1.1,3.8-1.7,5.8-1.7c2,0,3.8,0.4,5.5,1.4c1.7,1,3.1,2.5,4.3,4.4
		C183.6,204.3,184,205,184.2,205.6z M178.1,204.8c-0.9-1.5-2.2-2.4-3.8-2.7c-1.6-0.3-3.2,0-4.8,1c-1.4,0.8-2.4,2-2.9,3.5
		c-0.5,1.5-0.4,3.1,0.4,4.8L178.1,204.8z"/>
	<path class="st0" d="M183.8,182.1l13.8,28.2l-4.3,2.1l-13.8-28.2L183.8,182.1z"/>
	<path class="st0" d="M218.9,190.7l-16.6,6.6c0.8,1.7,2,2.8,3.6,3.4c1.6,0.6,3.2,0.6,4.9-0.1c2.4-1,3.7-2.6,3.9-5.1l4.8-1.9
		c0.1,2.3-0.4,4.4-1.6,6.3c-1.2,2-3.1,3.4-5.6,4.4c-2.1,0.8-4.1,1.1-6.1,0.8c-2-0.3-3.8-1.1-5.4-2.4c-1.6-1.3-2.8-3.1-3.7-5.3
		c-0.9-2.2-1.2-4.4-1-6.4c0.2-2.1,1-3.9,2.3-5.4c1.3-1.6,3-2.8,5.1-3.6c2-0.8,4.1-1.1,6-0.8c2,0.3,3.7,1,5.2,2.3s2.7,2.9,3.5,5
		C218.5,189.2,218.8,190,218.9,190.7z M212.9,188.8c-0.7-1.6-1.8-2.7-3.3-3.3c-1.6-0.5-3.2-0.5-4.9,0.2c-1.6,0.6-2.7,1.6-3.4,3.1
		c-0.7,1.4-0.8,3-0.4,4.8L212.9,188.8z"/>
	<path class="st0" d="M241.2,194.6l-9.6-9.6l-3.6,1l3.1,11.4l-4.7,1.3l-7.7-28.4l9.8-2.7c2.2-0.6,4.1-0.7,5.9-0.4
		c1.7,0.4,3.1,1.1,4.2,2.1c1.1,1.1,1.9,2.4,2.3,4c0.5,1.9,0.4,3.7-0.2,5.5c-0.7,1.8-2,3.3-4.1,4.4l10.2,9.9L241.2,194.6z M227,182.3
		l5.2-1.4c1.7-0.5,2.9-1.3,3.6-2.4c0.6-1.1,0.8-2.4,0.4-3.9c-0.4-1.5-1.1-2.5-2.2-3.1c-1.1-0.6-2.5-0.7-4.3-0.2l-5.2,1.4L227,182.3z
		"/>
	<path class="st0" d="M248.8,174.3c0.7-1.9,1.8-3.5,3.3-4.8c1.5-1.2,3.3-2,5.3-2.3c1.8-0.3,3.5-0.2,4.9,0.4c1.5,0.5,2.7,1.2,3.6,2.2
		l-0.5-3.4l4.8-0.7l3.5,23.1l-4.8,0.7l-0.5-3.4c-0.6,1.2-1.6,2.3-2.9,3.2c-1.3,0.9-2.8,1.5-4.6,1.8c-2,0.3-3.9,0.1-5.7-0.7
		c-1.8-0.8-3.3-2-4.6-3.7c-1.2-1.7-2-3.7-2.4-6C247.9,178.3,248.1,176.2,248.8,174.3z M265.6,173.9c-0.8-1.1-1.8-1.8-3-2.3
		c-1.2-0.5-2.3-0.6-3.6-0.4c-1.2,0.2-2.3,0.7-3.3,1.4s-1.7,1.8-2.2,3c-0.5,1.3-0.6,2.7-0.4,4.3c0.2,1.6,0.8,2.9,1.6,4
		c0.8,1.1,1.8,1.9,3,2.4c1.2,0.5,2.4,0.6,3.6,0.4c1.2-0.2,2.3-0.7,3.3-1.4c1-0.8,1.7-1.8,2.2-3.1c0.5-1.3,0.6-2.7,0.4-4.3
		S266.4,175,265.6,173.9z"/>
	<path class="st0" d="M278.6,170.2c0.9-1.8,2.2-3.3,3.9-4.3c1.6-1.1,3.5-1.6,5.6-1.7c1.5,0,3,0.2,4.5,0.9c1.5,0.6,2.7,1.5,3.6,2.5
		l-0.3-11.3l4.9-0.1l0.9,31.3l-4.9,0.1l-0.1-3.5c-0.8,1.2-1.8,2.1-3.2,2.9c-1.4,0.8-3,1.2-4.8,1.2c-2,0.1-3.9-0.4-5.6-1.4
		c-1.7-1-3.1-2.4-4.1-4.2c-1-1.8-1.6-3.9-1.7-6.2C277.2,174.2,277.6,172.1,278.6,170.2z M295.3,171.9c-0.7-1.2-1.6-2-2.7-2.6
		c-1.1-0.6-2.3-0.9-3.5-0.8c-1.2,0-2.4,0.4-3.4,1c-1.1,0.6-1.9,1.6-2.5,2.7c-0.6,1.2-0.9,2.6-0.9,4.2c0,1.6,0.4,3,1.1,4.2
		c0.7,1.2,1.6,2.1,2.7,2.7c1.1,0.6,2.3,0.9,3.5,0.8c1.2,0,2.4-0.4,3.4-1c1.1-0.7,1.9-1.6,2.5-2.8c0.6-1.2,0.9-2.6,0.9-4.2
		C296.3,174.4,296,173,295.3,171.9z"/>
	<path class="st0" d="M322.8,179.7c-0.8-0.6-1.4-1.3-1.8-2.2c-0.4-0.9-0.5-1.8-0.4-2.8c0.2-1.5,0.9-2.8,2-3.7
		c1.2-0.9,2.5-1.3,4.1-1.2c1.6,0.2,2.8,0.9,3.8,2.1c0.9,1.2,1.3,2.6,1.1,4.1c-0.2,1.5-0.9,2.8-2,3.7c-1.2,0.9-2.6,1.3-4.1,1.1
		C324.4,180.7,323.6,180.3,322.8,179.7z"/>
</g>
</svg>
