<?xml version="1.0" encoding="utf-8"?>
<!-- Generator: Adobe Illustrator 25.0.0, SVG Export Plug-In . SVG Version: 6.00 Build 0)  -->
<svg version="1.1" id="Layer_1" xmlns="http://www.w3.org/2000/svg" xmlns:xlink="http://www.w3.org/1999/xlink" x="0px" y="0px"
	 viewBox="0 0 122.5 125.1" style="enable-background:new 0 0 122.5 125.1;" xml:space="preserve">
<style type="text/css">
	.st0{fill:#FFFFFF;}
	.st1{fill:#128D69;}
</style>
<g>
	<circle class="st0" cx="61.2" cy="62.6" r="52.4"/>
	<g>
		<path class="st1" d="M63.4,103.2c-21.3-1-38.7-19.3-38.5-40.6C24.7,41.3,42.1,23,63.4,22c23.1-1.4,42.8,17.4,42.7,40.6
			C106.3,39,87,18.7,63.4,17.7c-25.4-1.4-47.1,19.4-47,44.9c-0.1,25.5,21.6,46.2,47,44.8c23.6-1,42.9-21.3,42.7-44.8
			C106.2,85.7,86.5,104.6,63.4,103.2z"/>
		<path class="st1" d="M34.6,72.8c-0.3-0.8-0.5-1.5-0.7-2.3C34,71.3,34.3,72,34.6,72.8z"/>
		<path class="st1" d="M33.8,70.5c-0.2-0.8-0.4-1.6-0.5-2.4C33.4,68.9,33.6,69.7,33.8,70.5z"/>
		<path class="st1" d="M34.7,73.1c0-0.1-0.1-0.2-0.1-0.3C34.6,72.9,34.6,73,34.7,73.1z"/>
		<path class="st1" d="M34.9,73.6c-0.1-0.2-0.1-0.4-0.2-0.5C34.7,73.3,34.8,73.4,34.9,73.6z"/>
		<path class="st1" d="M80.5,32.9c-24.4-12.5-51.6,8.4-47.4,34.3C30.9,52.4,40.9,37.8,56,35.1c14.4-2.9,29.2,6.6,32.8,20.7
			c3.9,14-4.2,29.6-18.1,34.3c-14.4,5.2-30.4-2.4-35.9-16.4c9.3,24.6,43.4,29.2,58.2,6.1C103.4,63.7,97.4,41.6,80.5,32.9z"/>
		<path class="st1" d="M33.2,67.8c0-0.2-0.1-0.4-0.1-0.6C33.2,67.4,33.2,67.6,33.2,67.8z"/>
		<path class="st1" d="M33.3,68.1c0-0.1,0-0.1,0-0.2C33.3,67.9,33.3,68,33.3,68.1z"/>
		<path class="st1" d="M72.9,80c8.3-5.6,10.9-17.4,6.1-26c4.6,8.3,0.8,18.9-8.1,22.2C63.7,79.1,55,75.7,51.5,69
			c-3.7-6.6-1.9-15.6,4.4-20.2c7.6-5.7,18.6-3.2,23.1,5.2c-4.6-8.7-15.9-12.9-25.1-8.9c-11,4.4-15.5,17.7-9.8,28
			C49.7,83.5,63.3,86.8,72.9,80z"/>
	</g>
</g>
</svg>
